<mxfile host="app.diagrams.net" modified="2024-02-18T16:28:48.440Z" agent="Mozilla/5.0 (Windows NT 10.0; Win64; x64) AppleWebKit/537.36 (KHTML, like Gecko) Chrome/121.0.0.0 Safari/537.36 Edg/121.0.0.0" etag="oN10aOlIWbeggqu4_aeM" version="23.1.5" type="device">
  <diagram name="Page-1" id="b5b7bab2-c9e2-2cf4-8b2a-24fd1a2a6d21">
    <mxGraphModel dx="2070" dy="962" grid="0" gridSize="10" guides="1" tooltips="1" connect="1" arrows="1" fold="1" page="0" pageScale="1" pageWidth="827" pageHeight="1169" background="none" math="0" shadow="0">
      <root>
        <mxCell id="0" />
        <mxCell id="1" parent="0" />
        <mxCell id="YlBb7T-y6JXZoCU6qG1A-75" value="" style="whiteSpace=wrap;html=1;strokeColor=#66B2FF;" parent="1" vertex="1">
          <mxGeometry x="-72" y="92.75" width="180" height="444.5" as="geometry" />
        </mxCell>
        <mxCell id="YlBb7T-y6JXZoCU6qG1A-74" value="" style="whiteSpace=wrap;html=1;strokeColor=#66B2FF;" parent="1" vertex="1">
          <mxGeometry x="271.87" y="95.5" width="180" height="444.5" as="geometry" />
        </mxCell>
        <mxCell id="YlBb7T-y6JXZoCU6qG1A-73" value="" style="whiteSpace=wrap;html=1;aspect=fixed;strokeColor=#66B2FF;" parent="1" vertex="1">
          <mxGeometry x="600" y="95.5" width="180" height="180" as="geometry" />
        </mxCell>
        <mxCell id="YlBb7T-y6JXZoCU6qG1A-72" value="" style="whiteSpace=wrap;html=1;aspect=fixed;strokeColor=#66B2FF;" parent="1" vertex="1">
          <mxGeometry x="1065" y="95.5" width="180" height="180" as="geometry" />
        </mxCell>
        <mxCell id="YlBb7T-y6JXZoCU6qG1A-70" value="" style="whiteSpace=wrap;html=1;aspect=fixed;strokeColor=#66B2FF;" parent="1" vertex="1">
          <mxGeometry x="1065" y="378.5" width="180" height="180" as="geometry" />
        </mxCell>
        <mxCell id="YlBb7T-y6JXZoCU6qG1A-67" value="" style="whiteSpace=wrap;html=1;aspect=fixed;strokeColor=#66B2FF;" parent="1" vertex="1">
          <mxGeometry x="1490" y="378.5" width="180" height="180" as="geometry" />
        </mxCell>
        <mxCell id="YlBb7T-y6JXZoCU6qG1A-66" value="" style="whiteSpace=wrap;html=1;aspect=fixed;strokeColor=#66B2FF;" parent="1" vertex="1">
          <mxGeometry x="1490" y="89" width="180" height="180" as="geometry" />
        </mxCell>
        <mxCell id="YlBb7T-y6JXZoCU6qG1A-1" value="" style="shape=mxgraph.signs.healthcare.inpatient;html=1;pointerEvents=1;fillColor=#66B2FF;strokeColor=none;verticalLabelPosition=bottom;verticalAlign=top;align=center;sketch=0;" parent="1" vertex="1">
          <mxGeometry x="-30" y="407.5" width="96" height="98" as="geometry" />
        </mxCell>
        <mxCell id="YlBb7T-y6JXZoCU6qG1A-2" value="" style="shape=mxgraph.signs.healthcare.inpatient;html=1;pointerEvents=1;fillColor=#66B2FF;strokeColor=none;verticalLabelPosition=bottom;verticalAlign=top;align=center;sketch=0;" parent="1" vertex="1">
          <mxGeometry x="-30" y="130" width="96" height="98" as="geometry" />
        </mxCell>
        <mxCell id="YlBb7T-y6JXZoCU6qG1A-5" value="" style="shape=ellipse;fillColor=#66B2FF;strokeColor=none;html=1;sketch=0;" parent="1" vertex="1">
          <mxGeometry x="20" y="260" width="10" height="10" as="geometry" />
        </mxCell>
        <mxCell id="YlBb7T-y6JXZoCU6qG1A-6" value="" style="shape=ellipse;fillColor=#66B2FF;strokeColor=none;html=1;sketch=0;" parent="1" vertex="1">
          <mxGeometry x="20" y="310" width="10" height="10" as="geometry" />
        </mxCell>
        <mxCell id="YlBb7T-y6JXZoCU6qG1A-8" value="" style="shape=ellipse;fillColor=#66B2FF;strokeColor=none;html=1;sketch=0;direction=south;" parent="1" vertex="1">
          <mxGeometry x="20" y="360" width="10" height="10" as="geometry" />
        </mxCell>
        <mxCell id="YlBb7T-y6JXZoCU6qG1A-10" value="" style="endArrow=classic;html=1;rounded=0;strokeColor=#66B2FF;" parent="1" edge="1">
          <mxGeometry width="50" height="50" relative="1" as="geometry">
            <mxPoint x="130" y="182" as="sourcePoint" />
            <mxPoint x="260" y="182" as="targetPoint" />
          </mxGeometry>
        </mxCell>
        <mxCell id="YlBb7T-y6JXZoCU6qG1A-12" value="" style="shape=mxgraph.signs.healthcare.anesthesia;html=1;pointerEvents=1;fillColor=#66B2FF;strokeColor=none;verticalLabelPosition=bottom;verticalAlign=top;align=center;sketch=0;rotation=-90;" parent="1" vertex="1">
          <mxGeometry x="390" y="144.5" width="33.5" height="31" as="geometry" />
        </mxCell>
        <mxCell id="YlBb7T-y6JXZoCU6qG1A-14" value="" style="endArrow=classic;html=1;rounded=0;strokeColor=#66B2FF;" parent="1" edge="1">
          <mxGeometry width="50" height="50" relative="1" as="geometry">
            <mxPoint x="130" y="180" as="sourcePoint" />
            <mxPoint x="260" y="290" as="targetPoint" />
          </mxGeometry>
        </mxCell>
        <mxCell id="YlBb7T-y6JXZoCU6qG1A-17" value="" style="shape=mxgraph.signs.healthcare.cardiology;html=1;pointerEvents=1;fillColor=#66B2FF;strokeColor=none;verticalLabelPosition=bottom;verticalAlign=top;align=center;sketch=0;" parent="1" vertex="1">
          <mxGeometry x="395" y="267.25" width="38" height="30" as="geometry" />
        </mxCell>
        <mxCell id="YlBb7T-y6JXZoCU6qG1A-18" value="" style="shape=ellipse;fillColor=#66B2FF;strokeColor=none;html=1;sketch=0;" parent="1" vertex="1">
          <mxGeometry x="356.62" y="360" width="10" height="10" as="geometry" />
        </mxCell>
        <mxCell id="YlBb7T-y6JXZoCU6qG1A-19" value="" style="shape=ellipse;fillColor=#66B2FF;strokeColor=none;html=1;sketch=0;" parent="1" vertex="1">
          <mxGeometry x="356.62" y="390" width="10" height="10" as="geometry" />
        </mxCell>
        <mxCell id="YlBb7T-y6JXZoCU6qG1A-20" value="" style="shape=ellipse;fillColor=#66B2FF;strokeColor=none;html=1;sketch=0;" parent="1" vertex="1">
          <mxGeometry x="356.62" y="420" width="10" height="10" as="geometry" />
        </mxCell>
        <mxCell id="YlBb7T-y6JXZoCU6qG1A-21" value="" style="endArrow=classic;html=1;rounded=0;strokeColor=#66B2FF;" parent="1" edge="1">
          <mxGeometry width="50" height="50" relative="1" as="geometry">
            <mxPoint x="130" y="180" as="sourcePoint" />
            <mxPoint x="260" y="480" as="targetPoint" />
          </mxGeometry>
        </mxCell>
        <mxCell id="YlBb7T-y6JXZoCU6qG1A-30" value="" style="endArrow=classic;html=1;rounded=0;strokeColor=#66B2FF;exitX=1.073;exitY=0.531;exitDx=0;exitDy=0;exitPerimeter=0;" parent="1" edge="1">
          <mxGeometry width="50" height="50" relative="1" as="geometry">
            <mxPoint x="450" y="183.5" as="sourcePoint" />
            <mxPoint x="590" y="184" as="targetPoint" />
          </mxGeometry>
        </mxCell>
        <mxCell id="YlBb7T-y6JXZoCU6qG1A-31" value="" style="endArrow=classic;html=1;rounded=0;strokeColor=#66B2FF;" parent="1" edge="1">
          <mxGeometry width="50" height="50" relative="1" as="geometry">
            <mxPoint x="460" y="310" as="sourcePoint" />
            <mxPoint x="580" y="220" as="targetPoint" />
          </mxGeometry>
        </mxCell>
        <mxCell id="YlBb7T-y6JXZoCU6qG1A-32" value="" style="endArrow=classic;html=1;rounded=0;strokeColor=#66B2FF;" parent="1" edge="1">
          <mxGeometry width="50" height="50" relative="1" as="geometry">
            <mxPoint x="460" y="480" as="sourcePoint" />
            <mxPoint x="590" y="280" as="targetPoint" />
          </mxGeometry>
        </mxCell>
        <mxCell id="YlBb7T-y6JXZoCU6qG1A-33" value="" style="image;html=1;image=img/lib/clip_art/computers/Server_128x128.png" parent="1" vertex="1">
          <mxGeometry x="640" y="130" width="100" height="116" as="geometry" />
        </mxCell>
        <mxCell id="YlBb7T-y6JXZoCU6qG1A-34" value="Device Gateway" style="text;strokeColor=none;fillColor=none;html=1;fontSize=19;fontStyle=0;verticalAlign=middle;align=center;fontColor=#66B2FF;" parent="1" vertex="1">
          <mxGeometry x="640" y="50" width="100" height="40" as="geometry" />
        </mxCell>
        <mxCell id="YlBb7T-y6JXZoCU6qG1A-36" value="Proprietary Medical Devices" style="text;strokeColor=none;fillColor=none;html=1;fontSize=19;fontStyle=0;verticalAlign=middle;align=center;fontColor=#66B2FF;" parent="1" vertex="1">
          <mxGeometry x="316.87" y="40" width="90" height="60" as="geometry" />
        </mxCell>
        <mxCell id="YlBb7T-y6JXZoCU6qG1A-37" value="" style="shape=mxgraph.signs.healthcare.diabetes;html=1;pointerEvents=1;fillColor=#66B2FF;strokeColor=none;verticalLabelPosition=bottom;verticalAlign=top;align=center;sketch=0;" parent="1" vertex="1">
          <mxGeometry x="395" y="461.38" width="48.25" height="30" as="geometry" />
        </mxCell>
        <mxCell id="YlBb7T-y6JXZoCU6qG1A-38" value="Pacients" style="text;strokeColor=none;fillColor=none;html=1;fontSize=19;fontStyle=0;verticalAlign=middle;align=center;fontColor=#66B2FF;" parent="1" vertex="1">
          <mxGeometry x="-27" y="40" width="90" height="60" as="geometry" />
        </mxCell>
        <mxCell id="YlBb7T-y6JXZoCU6qG1A-39" value="wireless comm. protocol" style="text;strokeColor=none;fillColor=none;html=1;fontSize=13;fontStyle=0;verticalAlign=middle;align=center;fontColor=#66B2FF;" parent="1" vertex="1">
          <mxGeometry x="480" y="140" width="90" height="60" as="geometry" />
        </mxCell>
        <mxCell id="YlBb7T-y6JXZoCU6qG1A-40" value="" style="shape=flexArrow;endArrow=classic;html=1;rounded=0;fontColor=#EA6B66;strokeColor=#EA6B66;fillColor=#EA6B66;startSize=6;strokeWidth=1;" parent="1" edge="1">
          <mxGeometry width="50" height="50" relative="1" as="geometry">
            <mxPoint x="790" y="180" as="sourcePoint" />
            <mxPoint x="1050" y="180" as="targetPoint" />
          </mxGeometry>
        </mxCell>
        <mxCell id="YlBb7T-y6JXZoCU6qG1A-41" value="wired communication" style="text;strokeColor=none;fillColor=none;html=1;fontSize=13;fontStyle=1;verticalAlign=middle;align=center;fontColor=#EA6B66;" parent="1" vertex="1">
          <mxGeometry x="870" y="130" width="90" height="60" as="geometry" />
        </mxCell>
        <mxCell id="YlBb7T-y6JXZoCU6qG1A-48" value="MonitorMe&lt;br&gt;On Premise Server" style="text;strokeColor=none;fillColor=none;html=1;fontSize=19;fontStyle=0;verticalAlign=middle;align=center;fontColor=#66B2FF;" parent="1" vertex="1">
          <mxGeometry x="1105" y="50" width="100" height="40" as="geometry" />
        </mxCell>
        <mxCell id="YlBb7T-y6JXZoCU6qG1A-49" value="" style="shape=flexArrow;endArrow=classic;html=1;rounded=0;fontColor=#EA6B66;strokeColor=#EA6B66;fillColor=#EA6B66;" parent="1" edge="1">
          <mxGeometry width="50" height="50" relative="1" as="geometry">
            <mxPoint x="790" y="180" as="sourcePoint" />
            <mxPoint x="1050" y="470" as="targetPoint" />
          </mxGeometry>
        </mxCell>
        <mxCell id="YlBb7T-y6JXZoCU6qG1A-51" value="" style="image;html=1;image=img/lib/clip_art/computers/Monitor_128x128.png" parent="1" vertex="1">
          <mxGeometry x="1090" y="418.75" width="130" height="100" as="geometry" />
        </mxCell>
        <mxCell id="YlBb7T-y6JXZoCU6qG1A-52" value="Consolidated Monitoring Screen&lt;br&gt;CMS" style="text;strokeColor=none;fillColor=none;html=1;fontSize=19;fontStyle=0;verticalAlign=middle;align=center;fontColor=#66B2FF;" parent="1" vertex="1">
          <mxGeometry x="1105" y="330" width="100" height="40" as="geometry" />
        </mxCell>
        <mxCell id="YlBb7T-y6JXZoCU6qG1A-53" value="" style="image;html=1;image=img/lib/clip_art/computers/Server_Rack_128x128.png" parent="1" vertex="1">
          <mxGeometry x="1090" y="142" width="130" height="104" as="geometry" />
        </mxCell>
        <mxCell id="YlBb7T-y6JXZoCU6qG1A-55" value="" style="shape=image;html=1;verticalAlign=top;verticalLabelPosition=bottom;labelBackgroundColor=#ffffff;imageAspect=0;aspect=fixed;image=https://cdn0.iconfinder.com/data/icons/devices-42/512/Watch-128.png" parent="1" vertex="1">
          <mxGeometry x="307.87" y="228" width="108.5" height="108.5" as="geometry" />
        </mxCell>
        <mxCell id="YlBb7T-y6JXZoCU6qG1A-56" value="" style="shape=image;html=1;verticalAlign=top;verticalLabelPosition=bottom;labelBackgroundColor=#ffffff;imageAspect=0;aspect=fixed;image=https://cdn0.iconfinder.com/data/icons/devices-42/1600/Watch_2-128.png" parent="1" vertex="1">
          <mxGeometry x="307.87" y="106" width="108" height="108" as="geometry" />
        </mxCell>
        <mxCell id="YlBb7T-y6JXZoCU6qG1A-58" value="" style="endArrow=classic;html=1;rounded=0;strokeColor=#66B2FF;" parent="1" edge="1">
          <mxGeometry width="50" height="50" relative="1" as="geometry">
            <mxPoint x="1480" y="184" as="sourcePoint" />
            <mxPoint x="1260" y="184" as="targetPoint" />
          </mxGeometry>
        </mxCell>
        <mxCell id="YlBb7T-y6JXZoCU6qG1A-59" value="WLAN" style="text;strokeColor=none;fillColor=none;html=1;fontSize=13;fontStyle=0;verticalAlign=middle;align=center;fontColor=#66B2FF;" parent="1" vertex="1">
          <mxGeometry x="1350" y="141" width="90" height="60" as="geometry" />
        </mxCell>
        <mxCell id="YlBb7T-y6JXZoCU6qG1A-63" value="" style="shape=image;html=1;verticalAlign=top;verticalLabelPosition=bottom;labelBackgroundColor=#ffffff;imageAspect=0;aspect=fixed;image=https://cdn2.iconfinder.com/data/icons/mobile-and-internet-business/499/mobile_in_hand-128.png" parent="1" vertex="1">
          <mxGeometry x="1500" y="404.38" width="144" height="144" as="geometry" />
        </mxCell>
        <mxCell id="YlBb7T-y6JXZoCU6qG1A-64" value="" style="endArrow=classic;html=1;rounded=0;strokeColor=#66B2FF;" parent="1" edge="1">
          <mxGeometry width="50" height="50" relative="1" as="geometry">
            <mxPoint x="1480" y="470" as="sourcePoint" />
            <mxPoint x="1260" y="200" as="targetPoint" />
          </mxGeometry>
        </mxCell>
        <mxCell id="YlBb7T-y6JXZoCU6qG1A-65" value="Mobile App" style="text;strokeColor=none;fillColor=none;html=1;fontSize=19;fontStyle=0;verticalAlign=middle;align=center;fontColor=#66B2FF;" parent="1" vertex="1">
          <mxGeometry x="1530" y="345" width="100" height="40" as="geometry" />
        </mxCell>
        <mxCell id="YlBb7T-y6JXZoCU6qG1A-62" value="Web App" style="text;strokeColor=none;fillColor=none;html=1;fontSize=19;fontStyle=0;verticalAlign=middle;align=center;fontColor=#66B2FF;" parent="1" vertex="1">
          <mxGeometry x="1530" y="50" width="100" height="40" as="geometry" />
        </mxCell>
        <mxCell id="YlBb7T-y6JXZoCU6qG1A-68" value="" style="image;html=1;image=img/lib/clip_art/people/Nurse_Woman_128x128.png" parent="1" vertex="1">
          <mxGeometry x="1600" y="478.5" width="80" height="80" as="geometry" />
        </mxCell>
        <mxCell id="YlBb7T-y6JXZoCU6qG1A-69" value="" style="image;html=1;image=img/lib/clip_art/people/Nurse_Woman_Black_128x128.png" parent="1" vertex="1">
          <mxGeometry x="1480" y="478.5" width="80" height="80" as="geometry" />
        </mxCell>
        <mxCell id="YlBb7T-y6JXZoCU6qG1A-77" value="WLAN" style="text;strokeColor=none;fillColor=none;html=1;fontSize=13;fontStyle=0;verticalAlign=middle;align=center;fontColor=#66B2FF;rotation=0;" parent="1" vertex="1">
          <mxGeometry x="1370" y="330" width="90" height="60" as="geometry" />
        </mxCell>
        <mxCell id="YlBb7T-y6JXZoCU6qG1A-79" value="" style="image;html=1;image=img/lib/clip_art/computers/Laptop_128x128.png" parent="1" vertex="1">
          <mxGeometry x="1515" y="104" width="130" height="150" as="geometry" />
        </mxCell>
        <mxCell id="YlBb7T-y6JXZoCU6qG1A-81" value="" style="image;html=1;image=img/lib/clip_art/computers/Stylus_128x128.png" parent="1" vertex="1">
          <mxGeometry x="317" y="436" width="80" height="80" as="geometry" />
        </mxCell>
      </root>
    </mxGraphModel>
  </diagram>
</mxfile>
